<svg id="Layer_1" data-name="Layer 1" xmlns="http://www.w3.org/2000/svg" viewBox="0 0 1125 304.53"><defs><style>.cls-1{fill:#fff;}.cls-2{fill:#008a1e;}.cls-3{fill:blue;}.cls-4{fill:none;stroke:#fff;stroke-miterlimit:10;stroke-width:9px;}</style></defs><path class="cls-1" d="M127.82,7.17A6.54,6.54,0,0,0,134,11.51a6.41,6.41,0,0,0,4.81-2.15,6.25,6.25,0,0,0,1.29,4.24,6.67,6.67,0,0,0,5.28,2.65,6.36,6.36,0,0,0,2.78-.64,6.37,6.37,0,0,0,0,5.63A6.48,6.48,0,0,0,154.05,25h.41a6.55,6.55,0,0,0,2.2,11,6.55,6.55,0,0,0-2.2,11h-.41a6.49,6.49,0,0,0-5.83,3.72,6.39,6.39,0,0,0,0,5.64,6.36,6.36,0,0,0-2.78-.64,6.67,6.67,0,0,0-5.28,2.65,6.25,6.25,0,0,0-1.29,4.24A6.37,6.37,0,0,0,134,60.47a6.54,6.54,0,0,0-6.22,4.34,6.54,6.54,0,0,0-6.21-4.34,6.39,6.39,0,0,0-4.82,2.15,6.29,6.29,0,0,0-1.28-4.24,6.69,6.69,0,0,0-5.29-2.65,6.36,6.36,0,0,0-2.78.64,6.32,6.32,0,0,0,0-5.64A6.48,6.48,0,0,0,101.59,47h-.4A6.56,6.56,0,0,0,99,36a6.56,6.56,0,0,0,2.2-11h.4a6.47,6.47,0,0,0,5.83-3.73,6.3,6.3,0,0,0,0-5.63,6.36,6.36,0,0,0,2.78.64,6.69,6.69,0,0,0,5.29-2.65,6.29,6.29,0,0,0,1.28-4.24,6.43,6.43,0,0,0,4.82,2.15,6.54,6.54,0,0,0,6.21-4.34m0-2.14a.66.66,0,0,0-.67.59h0a5.48,5.48,0,0,1-5.54,4.89,5.39,5.39,0,0,1-4.79-2.83h0a.64.64,0,0,0-.57-.35.67.67,0,0,0-.67.86h0a5.55,5.55,0,0,1-5.36,7.06,5.45,5.45,0,0,1-3.4-1.21h0a.69.69,0,0,0-.41-.15.68.68,0,0,0-.53,1.1h0a5.55,5.55,0,0,1-4.29,9,5.88,5.88,0,0,1-1.57-.22h0a.69.69,0,0,0-.2,0A.68.68,0,0,0,99.51,25h0a5.54,5.54,0,0,1-2.06,10.33h0a.68.68,0,0,0,0,1.34h0A5.54,5.54,0,0,1,99.51,47h0a.68.68,0,0,0,.31,1.27.69.69,0,0,0,.2,0h0a5.88,5.88,0,0,1,1.57-.22,5.55,5.55,0,0,1,4.29,9h0a.68.68,0,0,0,.53,1.1.69.69,0,0,0,.41-.15h0a5.45,5.45,0,0,1,3.4-1.21,5.55,5.55,0,0,1,5.36,7.06h0a.67.67,0,0,0,.67.86.64.64,0,0,0,.57-.35h0a5.39,5.39,0,0,1,4.79-2.83,5.48,5.48,0,0,1,5.54,4.89h0a.68.68,0,0,0,1.34,0h0A5.49,5.49,0,0,1,134,61.47a5.38,5.38,0,0,1,4.78,2.83h0a.64.64,0,0,0,.58.35.67.67,0,0,0,.66-.86h0a5.55,5.55,0,0,1,5.36-7.06,5.45,5.45,0,0,1,3.4,1.21h0a.72.72,0,0,0,.42.15.68.68,0,0,0,.53-1.1h0a5.55,5.55,0,0,1,4.28-9,5.83,5.83,0,0,1,1.57.22h0l.2,0a.68.68,0,0,0,.31-1.27h0a5.54,5.54,0,0,1,2.06-10.33h0a.68.68,0,0,0,0-1.34h0A5.54,5.54,0,0,1,156.13,25h0a.68.68,0,0,0-.31-1.27l-.2,0h0a5.83,5.83,0,0,1-1.57.22,5.55,5.55,0,0,1-4.28-9h0a.68.68,0,0,0-.53-1.1.72.72,0,0,0-.42.15h0a5.45,5.45,0,0,1-3.4,1.21,5.56,5.56,0,0,1-5.36-7.06h0a.67.67,0,0,0-.66-.86.64.64,0,0,0-.58.35h0A5.38,5.38,0,0,1,134,10.51a5.49,5.49,0,0,1-5.55-4.89h0a.66.66,0,0,0-.67-.59Z" transform="translate(0 0)"/><path class="cls-1" d="M490.72,155H463.89V137q0-7.81-.85-9.76c-.58-1.29-1.84-1.94-3.8-1.94q-3.32,0-4.2,2.36t-.9,10.2v47.92q0,7.52.9,9.81t4,2.3q3,0,3.92-2.3c.62-1.53.92-5.13.92-10.8v-13h26.83v4q0,16-2.26,22.71t-10,11.75q-7.74,5-19.09,5-11.79,0-19.44-4.27a20.78,20.78,0,0,1-10.13-11.82q-2.49-7.56-2.49-22.72V146.41a133.77,133.77,0,0,1,.77-16.73,23.39,23.39,0,0,1,4.56-10.74,25.31,25.31,0,0,1,10.51-8.12,37.92,37.92,0,0,1,15.45-3q11.86,0,19.57,4.58t10.13,11.43q2.43,6.84,2.42,21.29Z" transform="translate(0 0)"/><path class="cls-1" d="M557.83,158.32V179q0,11.4-1.15,16.72a23.37,23.37,0,0,1-4.91,9.94,22,22,0,0,1-9.65,6.82,38.49,38.49,0,0,1-13.54,2.2,48.4,48.4,0,0,1-14.47-1.88,19.69,19.69,0,0,1-9.21-5.67,22.35,22.35,0,0,1-4.68-9.18q-1.41-5.38-1.4-16.15V160.17q0-11.79,2.55-18.42a21.2,21.2,0,0,1,9.17-10.64q6.63-4,16.95-4a38.79,38.79,0,0,1,14.89,2.58,23.31,23.31,0,0,1,14.21,15.26Q557.83,149.34,557.83,158.32ZM532.08,152q0-6.49-.7-8.19a2.89,2.89,0,0,0-3-1.69,3,3,0,0,0-3.06,1.69q-.76,1.69-.77,8.19v38.17q0,6,.77,7.81a3.48,3.48,0,0,0,6,.16c.49-1.11.73-3.48.73-7.14Z" transform="translate(0 0)"/><path class="cls-1" d="M592.05,128.63l-1,11.12q5.61-12,16.25-12.65v29.76q-7.08,0-10.39,1.91a8,8,0,0,0-4.08,5.32q-.76,3.41-.76,15.71v33.39H566.3V128.63Z" transform="translate(0 0)"/><path class="cls-1" d="M671.26,158.32V179q0,11.4-1.14,16.72a23.49,23.49,0,0,1-4.91,9.94,22.1,22.1,0,0,1-9.65,6.82,38.55,38.55,0,0,1-13.55,2.2,48.38,48.38,0,0,1-14.46-1.88,19.64,19.64,0,0,1-9.21-5.67,22.49,22.49,0,0,1-4.69-9.18q-1.39-5.38-1.4-16.15V160.17q0-11.79,2.55-18.42A21.22,21.22,0,0,1,624,131.11q6.63-4,16.95-4a38.7,38.7,0,0,1,14.88,2.58A23.31,23.31,0,0,1,670,144.94Q671.27,149.34,671.26,158.32ZM645.52,152c0-4.33-.24-7.06-.7-8.19a2.91,2.91,0,0,0-3-1.69,3,3,0,0,0-3.06,1.69Q638,145.45,638,152v38.17q0,6,.76,7.81a3.48,3.48,0,0,0,6,.16c.48-1.11.73-3.48.73-7.14Z" transform="translate(0 0)"/><path class="cls-1" d="M705.93,128.63l-.45,7.79a19.26,19.26,0,0,1,6.86-7,18.25,18.25,0,0,1,9.33-2.33q6.63,0,10.83,3.12a13.89,13.89,0,0,1,5.42,7.87c.81,3.17,1.21,8.44,1.21,15.84v59.26H713.39V154.63c0-5.82-.2-9.37-.58-10.64s-1.44-1.92-3.18-1.92-3,.74-3.45,2.2-.7,5.39-.7,11.76v57.16H679.74V128.63Z" transform="translate(0 0)"/><path class="cls-1" d="M771,161.38H746.84v-5.67q0-9.81,2.27-15.13t9.08-9.4q6.81-4.08,17.71-4.08,13.07,0,19.69,4.62t8,11.34q1.34,6.72,1.34,27.69v42.44h-25v-7.53a15.67,15.67,0,0,1-15,9.06,21.73,21.73,0,0,1-12.4-3.79q-5.62-3.8-5.64-16.6v-7q0-9.49,3-12.93t14.85-8q12.67-5,13.57-6.69c.6-1.15.89-3.49.89-7,0-4.42-.32-7.3-1-8.64a3.4,3.4,0,0,0-3.29-2c-1.74,0-2.82.57-3.25,1.69s-.63,4.05-.63,8.76Zm8.15,11.6q-6.18,4.53-7.16,7.58a29.77,29.77,0,0,0-1,8.8c0,4.37.28,7.2.86,8.47a3.36,3.36,0,0,0,3.41,1.92q2.41,0,3.15-1.5t.73-7.87Z" transform="translate(0 0)"/><path class="cls-1" d="M890.76,143.3H858.57V121.78q0-9.39-1-11.71c-.69-1.56-2.21-2.33-4.55-2.33-2.65,0-4.34.94-5,2.83s-1.07,6-1.07,12.23v57.51q0,9,1.07,11.78t4.82,2.75q3.59,0,4.7-2.76t1.11-13V163.56h32.19v4.83q0,19.22-2.71,27.26t-12,14.09q-9.28,6.06-22.9,6-14.14,0-23.32-5.12t-12.16-14.19q-3-9.06-3-27.26V133.05a161,161,0,0,1,.92-20.07,28.1,28.1,0,0,1,5.47-12.89,30.45,30.45,0,0,1,12.62-9.75,45.59,45.59,0,0,1,18.54-3.56q14.22,0,23.48,5.5T887.86,106q2.91,8.2,2.9,25.55Z" transform="translate(0 0)"/><path class="cls-1" d="M976.34,89.38V213.19h-32.2v-52h-9.63v52h-32.2V89.38h32.2v44.28h9.63V89.38Z" transform="translate(0 0)"/><path class="cls-1" d="M1044.92,89.38l18.4,123.81h-32.9l-1.72-22.25h-11.52l-1.94,22.25H982L998.38,89.38ZM1027.85,169q-2.44-21-4.9-52-4.92,35.56-6.18,52Z" transform="translate(0 0)"/><path class="cls-1" d="M1125,89.38v24.78h-19.12v99h-32.19v-99h-19V89.38Z" transform="translate(0 0)"/><path class="cls-2" d="M214.72,131.68c-5.88-9.41-18.36-11.66-23-23.87S171.52,66.62,162.84,56A60.81,60.81,0,0,1,151.57,32.3l2-.77s-2.3-6.1-6.37-4.56l-8.14,3.08L131,33.12c-4.07,1.54-1.76,7.65-1.76,7.65l2-.77s6.65,11.44,7.2,25.18,8,45.81,12.63,58-3.25,22.16-1.44,33.1,22.31,59,34.62,91.56c10.77,28.49,15.61,29,15.61,29a6.75,6.75,0,0,0,4.84.49c17-4.12,25.18-7.2,25.18-7.2s8.14-3.07,23.65-11.26a6.72,6.72,0,0,0,3.3-3.57s3.3-3.58-7.47-32.06C237,190.68,220.6,141.08,214.72,131.68Z" transform="translate(0 0)"/><path class="cls-3" d="M42.78,131.62c5.89-9.39,18.38-11.62,23-23.82S86.09,66.64,94.8,56a60.87,60.87,0,0,0,11.3-23.63l-2-.77s2.32-6.1,6.39-4.56l8.13,3.1,8.13,3.09c4.07,1.54,1.75,7.64,1.75,7.64l-2-.77s-6.67,11.43-7.24,25.17-8.1,45.79-12.74,58,3.21,22.17,1.38,33.11-22.41,59-34.78,91.49c-10.82,28.47-15.66,29-15.66,29a6.75,6.75,0,0,1-4.84.49c-17-4.15-25.17-7.25-25.17-7.25S19.26,267,3.77,258.75a6.77,6.77,0,0,1-3.3-3.58s-3.29-3.58,7.53-32C20.36,190.59,36.88,141,42.78,131.62Z" transform="translate(0 0)"/><line class="cls-4" x1="331.3" x2="331.3" y2="304.53"/></svg>